<svg version="1.0" xmlns="http://www.w3.org/2000/svg" viewBox="0 0 400 400"><path d="M191.5 12.9c-14.6 14.9-25.3 32.6-29.6 49.1-3.4 12.8-3.2 32.1.5 44.5 5.2 17.5 18.4 39.7 31.1 52.2 8.4 8.3 21.7 17.3 25.5 17.3 1 0 1.7-2.9 2.5-10.1l.6-5.5-4.2-2.8c-5.7-3.9-16.1-14.5-22.8-23.6-20.2-27.1-24.3-53.8-12.3-80.2 4.6-10.2 13.8-22.8 16.5-22.8 2 0 10.4 11.5 15.5 21 9.9 18.4 12.2 37.4 7.1 56.7-1.4 5.1-3.1 5.5-8.8 1.8-4.5-2.8-8.6-7.8-10.2-12.3-1.2-3.5.3-7.7 3.3-9.6 2.4-1.4 3.4 0 1.6 2.1-3.6 4.2-2.1 8.5 2.8 8.5 6.8 0 8.7-9.5 2.5-12.6-4.6-2.4-11.6.4-12.7 5-.3 1.3-1 2.4-1.4 2.4-.5 0-2.5-2.7-4.5-6-4.7-7.7-5.6-14.9-2.6-19.8 2.6-4 6.6-6.1 8.4-4.3.9 1 .7 1.6-1.1 3.1-3.6 2.9-4.8 7.5-2.7 10.6 1.7 2.6 5 4.3 7.5 3.8.8-.1 2-.3 2.5-.3 2.3-.3 5.7-3.9 6.9-7.6 1.3-3.5 1.2-4.4-.4-7.6-4.2-8-14.8-9-22-1.9-7.4 7.2-7.6 16.3-.6 29.9 9.6 19 29.3 45.7 33.6 45.6 2 0 5.2-5.1 9.1-14.3 11.2-26.7 10.6-53.1-1.8-78.1-2.5-5.1-7.3-13-10.6-17.5-6.2-8.3-17.9-21.1-20.8-22.7-1.3-.7-3.2.7-8.4 6zM322.9 80.4c-.2.2-2.5.6-5.1.9-24.8 3-47.6 17.1-61.6 38.2-8.1 12.3-16.3 33.8-18.7 49-1.2 7.3-1.3 22.9-.3 28.7 1.2 7.1 2.8 7.6 10.1 3.1l5.6-3.5v-8.7c.1-26.9 11.6-56.6 27.5-71.5 13.5-12.6 33.7-20.1 52.4-19.4l7.7.3.1 3c0 1.6-1.1 6.6-2.4 11-5.1 17.2-14.6 32-26.7 41.7-6.6 5.3-21 13.2-22.5 12.3-1.5-1-2.8-7.1-2.3-11.2 1.3-10.8 4.8-15.7 10.7-15.1 3.9.4 4.7 2.8.9 2.8-4.1 0-5.5 1.3-5.1 4.6.2 1.9 1.2 3.4 3.1 4.4 2.4 1.3 3 1.3 5.4 0 8.8-4.9 1.5-16.9-8.5-14l-3 .8 1.8-5.3c2.4-7 3.7-9.4 6.8-12.7 3.5-3.8 8.3-5.3 12.6-3.8 5.7 1.9 5.6 5.6-.1 4.5-9.9-1.8-13.4 10.3-4.3 15 3.9 2 6.9 1.9 10.8-.5 5.4-3.3 6.8-9.9 3.2-15.7-2.6-4.4-5.8-6.3-11.7-7-13.8-1.6-20 6-31.7 38.9-5 14.1-6.9 22.5-7 31.3-.1 2.9 0 3 4.5 2.8 12.1-.3 33.8-8.8 45.4-17.6 11-8.3 21-20.7 27-33.3 3.4-7.1 8.4-21.6 9.1-26.4.3-1.9 1-5.4 1.5-7.7 1.6-7.5 2.2-17 1-17.7-.6-.4-2.1-.9-3.3-1.2-2.8-.6-32.3-1.5-32.9-1zM52.9 82.4c-.2.2-3 .6-6.2.9-8.4.7-8.7 1.3-7 12.7 3.6 25.4 13.4 46.9 27.9 61.3 10.3 10.3 27.5 19.5 42.9 23.1 11.7 2.7 12.5 2.7 28 3.1 16.1.3 27.7-1.4 39-5.6 8.1-3 8.5-4.6 2.4-10.8-3.3-3.4-5.6-5-6.7-4.7-10.7 3.3-15.7 4-30.2 4-8.5.1-17.3-.2-19.5-.5-14-2.2-29.1-8.3-38.2-15.4-12.1-9.6-22.3-26.4-26.3-43.3-2-8.4-1.8-8.5 11.8-7.9 6.4.3 13.3.8 15.2 1.2 7.8 1.5 18.5 5.5 25.3 9.6 8.3 4.9 25 21 24.5 23.7-.7 4-15.2 7.3-21.8 5-3.4-1.2-6.2-5.1-5.8-8.1.4-3.2 2-2.7 3 1 .7 2.8 1.3 3.3 3.8 3.3 5.5 0 7.5-7.1 3-11.1-3.1-2.7-9.1-1.2-10.8 2.7-1.4 3-1.5 8.3-.3 10.4 1.6 2.4.5 2.7-6.5 1.9-7.4-.9-14.2-4.3-16.2-8.1-1.8-3.4-2.2-8.4-.8-10.4 1.8-2.4 3.6-.9 3.6 3 0 6.7 8.5 10.2 13 5.4 5.9-6.4 2.4-17.1-6.1-18.4-7.2-1.1-14 5.2-14.5 13.2-.7 11.5 6.5 18.8 21.6 21.9 4.6.9 8.6 1.5 13.5 2.1 3.3.3 6.9.8 8 1 4.9 1 23.6 1.4 29.4.7 8.9-1.1 9.3-2.1 4.6-11.9-14.5-30.5-35.8-46.9-70-53.9-3.6-.8-32.9-1.7-33.6-1.1zM78.5 197.7C54.1 201.2 34.1 213.2 16 235c-6.4 7.7-15 20.7-15 22.6 0 3 21.2 14.5 35.7 19.3 35.6 12 69.7 2.4 98.4-27.6 11.6-12.1 18.9-23.2 24.2-36.5 2.9-7.2 3.4-11.4 1.5-12.1-.7-.2-4-.2-7.3.1-5.9.4-8.5 1.5-8.5 3.4 0 2.2-5.6 12.4-11 20-12.5 17.4-29.1 31-45.2 36.9-9.9 3.7-24.8 4.9-34.8 3-13.6-2.7-29-9-29-11.9 0-1.7 4.6-7.6 11.5-14.8 9.3-9.7 24.4-18.7 36.7-21.8 6.9-1.8 22.7-3.1 25.7-2.1 2.6.8 2.7 3.6.2 9.1-2.4 5.4-7.5 11-10.9 12.2-3.4 1.2-9.2-.9-9.2-3.3 0-1.8 1.1-2 2.7-.4.6.6 2.3.9 3.9.7 2.5-.3 2.9-.8 3.2-3.9.3-3.9-.8-5.4-4.8-6.4-3.1-.8-7.7 2.4-8.2 5.8-.8 4.4 4.4 10.7 8.7 10.7 2.4 0 1.8 1.7-2.2 5.9-8.9 9.1-20.2 10.7-24.9 3.6-2.4-3.7-.2-5 4-2.4 1.7 1 4 1.9 5.2 1.9 1.9 0 6.3-3.2 6.5-4.8 0-.4.2-1.6.4-2.6.9-4.7-5.2-10.6-10.9-10.6-12.8 0-15.1 17.5-3.2 24.5 11.5 6.7 19.9 2.9 42.5-19 14.6-14.2 24.7-27.5 23.1-30.5-1.5-2.8-17.6-6.4-32.1-7.3-3-.1-9.5.3-14.4 1zM316.8 197.5c-.2.2-3.4.5-7.3.6-14.5.5-35.5 6.6-50.4 14.7-12.9 6.9-28.6 20.3-27.9 23.7.4 2.2 12.5 7.2 14.3 5.9.6-.5 4.3-3.2 8.1-6.1 10.6-8 31.6-17.7 42.8-19.7 14.4-2.6 23.7-2.7 35.1-.2 5.3 1.1 14.1 5.2 20.7 9.5 7.5 4.9 20 16.8 23.1 22 1.7 2.9 1.7 3-1 4.9-3.4 2.4-17.4 7.8-23.9 9.2-14 3.2-27.6 3-38.9-.5-8.1-2.6-19.3-7.6-19.9-9-.8-2.1 5.1-8.2 10.6-10.9 7.6-3.8 13.3-3.3 15.8 1.4 1.8 3.3 0 4.3-2.5 1.5-2.8-2.9-4.7-3.2-6.9-.9-2.4 2.3-1.9 6.2 1 8.9 5.5 5.1 13.3-1.8 10.9-9.6-.4-1.2-1.8-3.2-3.2-4.5l-2.5-2.3 3.1-1.6c1.7-.8 3.1-1.3 3.1-.9s.7.1 1.5-.6 4.4-1.3 7.9-1.4c5.1-.1 7.1.3 9.3 2 3.7 2.7 6.6 8.3 5.2 10-1.2 1.5-3.9.8-3.9-1 0-2.2-4.5-5.6-7.4-5.6-1.6 0-3.8 1.1-5.3 2.6-2.2 2.2-2.5 3.2-2 7.2.4 3.6 1.2 5.2 3.6 7.2 9.8 8.2 22.7-3.5 17.5-15.9-3-7.2-9.4-11.6-17.5-12-14-.7-63.5 17.8-64.7 24.2-.7 3.3 17.7 17.6 28.8 22.4 3 1.3 6.4 2.8 7.5 3.2 9.4 4.1 31.8 6.6 41.5 4.6 1.3-.2 4.1-.7 6-1 5.8-.9 15.8-4 24.1-7.4 10.4-4.3 26.3-13.6 26.7-15.5.7-3.2-12.7-22.3-22.5-32.1-15.2-15.2-33.4-24.3-52.1-26.1-3.1-.3-6.2-.7-6.9-.9-.6-.2-1.3-.2-1.5 0zM163.9 240.2c-1.8 2.9-3.5 5.7-3.7 6.1-.2.5.9 3.4 2.6 6.5 3.1 6 6.4 15.4 8.3 23.7 9.8 43.9-4.1 75.9-40.9 94.4-7.5 3.8-8.4 3.4-10-4.1-4.3-19.9-2.8-38.8 4.1-53.7 2.2-4.8 9.3-15.9 12.7-19.9 3.1-3.8 6-2.6 9.2 3.8 4.8 9.7 4.3 17.7-1.3 20.6-2.8 1.4-4.9 1.2-4.9-.6 0-.4 1.1-1.1 2.4-1.4 3.6-.9 4.4-5.5 1.5-7.9-3.9-3.1-10.9.4-10.9 5.4 0 3 4.2 6.9 8 7.3 3.8.4 9-1.7 9-3.7 0-.6.5-.4 1.1.6 1.9 3.3 1.5 15.7-.6 20.1-2.2 4.6-6.9 7.7-10.9 7.4-4.6-.5-4.3-2.6.7-4.7 6.1-2.6 7.7-7.6 3.7-11.9-6-6.4-18-1.8-18 6.9 0 10.8 10 16.1 21.2 11.1 11.9-5.3 13.8-18.4 8.3-60.2-.9-7-5.3-20.7-6.9-21.3-3-1.2-20.1 12.8-28.2 23-19.4 24.4-24.2 55-14.5 91.3 3.6 13.6 4.5 15.5 7.3 15.8 1.4.2 6.6-1.2 11.5-3.1 35.8-13.8 56.2-35.4 63.9-67.2 1.8-7.3 2.5-32.6 1.1-41.1-2.8-17.6-9.1-34.7-16.9-45.7-2.9-4-5-3.4-8.9 2.5zM197.6 251.9c-.8 1.2 3 13.7 4.2 14.5.4.2 2.7.7 5.1 1.1 11.7 1.7 29.5 9.3 42.6 18 18 12 28.8 26.7 33.1 45.3 3.3 14 .8 42.2-3.7 42.2-1.6 0-15.1-7.1-20.9-11-15.3-10.4-25.4-23.8-30.9-41.1-2.8-8.8-3.3-12.2-1.8-13.1 3.7-2.4 16.5 1.2 20.9 6 2.9 3 3.6 5.5 2.4 8.9-1.2 3.7-3.3 2.8-3.2-1.3.1-2.7-.5-4-2.1-5.1-2.1-1.4-2.4-1.3-5.2 1.5-2.2 2.2-2.8 3.5-2.4 5.3 1.4 5.6 6.7 7.6 11.7 4.4 2.9-1.9 5-6.7 4.3-9.5-.4-1.8-.2-2 1.6-1.4 3.7 1.1 10.5 6.3 13.4 10.1 3.7 4.8 3.9 12.1.6 15.5-3.3 3.2-5 1.3-3.2-3.7 1.1-3.1 1.1-4-.1-6.2-3.2-5.7-10.9-5.1-14.5 1-6.3 10.6 6.2 21.4 16.5 14.4 9.7-6.5 10.1-19.8.7-29.5-7.2-7.6-37.7-26.1-49.5-30.2-9.2-3.1-9.6-2.7-9.7 8.8-.2 38.4 17.5 67.5 52.5 86 11.2 5.9 28.2 12.4 30.4 11.6 2.7-1 7.3-16.9 10.1-34.9.4-2.2.6-8.3.6-13.7-.2-28.3-12.5-51.9-36.6-70.3-17.3-13.3-40.5-23-57.6-24.2-6-.4-8.8-.2-9.3.6z"/></svg>