<?xml version="1.0" standalone="no"?>
<!DOCTYPE svg PUBLIC "-//W3C//DTD SVG 20010904//EN"
 "http://www.w3.org/TR/2001/REC-SVG-20010904/DTD/svg10.dtd">
<svg version="1.0" xmlns="http://www.w3.org/2000/svg"
 width="400.000000pt" height="400.000000pt" viewBox="0 0 400.000000 400.000000"
 preserveAspectRatio="xMidYMid meet">
<g transform="translate(0.000000,400.000000) scale(0.100000,-0.100000)"
fill="#000000" stroke="none">
<path d="M1915 3871 c-146 -149 -253 -326 -296 -491 -34 -128 -32 -321 5 -445
52 -175 184 -397 311 -522 84 -83 217 -173 255 -173 10 0 17 29 25 101 l6 55
-42 28 c-57 39 -161 145 -228 236 -202 271 -243 538 -123 802 46 102 138 228
165 228 20 0 104 -115 155 -210 99 -184 122 -374 71 -567 -14 -51 -31 -55 -88
-18 -45 28 -86 78 -102 123 -12 35 3 77 33 96 24 14 34 0 16 -21 -36 -42 -21
-85 28 -85 68 0 87 95 25 126 -46 24 -116 -4 -127 -50 -3 -13 -10 -24 -14 -24
-5 0 -25 27 -45 60 -47 77 -56 149 -26 198 26 40 66 61 84 43 9 -10 7 -16 -11
-31 -36 -29 -48 -75 -27 -106 17 -26 50 -43 75 -38 8 1 20 3 25 3 23 3 57 39
69 76 13 35 12 44 -4 76 -42 80 -148 90 -220 19 -74 -72 -76 -163 -6 -299 96
-190 293 -457 336 -456 20 0 52 51 91 143 112 267 106 531 -18 781 -25 51 -73
130 -106 175 -62 83 -179 211 -208 227 -13 7 -32 -7 -84 -60z"/>
<path d="M3229 3196 c-2 -2 -25 -6 -51 -9 -248 -30 -476 -171 -616 -382 -81
-123 -163 -338 -187 -490 -12 -73 -13 -229 -3 -287 12 -71 28 -76 101 -31 l56
35 0 87 c1 269 116 566 275 715 135 126 337 201 524 194 l77 -3 1 -30 c0 -16
-11 -66 -24 -110 -51 -172 -146 -320 -267 -417 -66 -53 -210 -132 -225 -123
-15 10 -28 71 -23 112 13 108 48 157 107 151 39 -4 47 -28 9 -28 -41 0 -55
-13 -51 -46 2 -19 12 -34 31 -44 24 -13 30 -13 54 0 88 49 15 169 -85 140
l-30 -8 18 53 c24 70 37 94 68 127 35 38 83 53 126 38 57 -19 56 -56 -1 -45
-99 18 -134 -103 -43 -150 39 -20 69 -19 108 5 54 33 68 99 32 157 -26 44 -58
63 -117 70 -138 16 -200 -60 -317 -389 -50 -141 -69 -225 -70 -313 -1 -29 0
-30 45 -28 121 3 338 88 454 176 110 83 210 207 270 333 34 71 84 216 91 264
3 19 10 54 15 77 16 75 22 170 10 177 -6 4 -21 9 -33 12 -28 6 -323 15 -329
10z"/>
<path d="M529 3176 c-2 -2 -30 -6 -62 -9 -84 -7 -87 -13 -70 -127 36 -254 134
-469 279 -613 103 -103 275 -195 429 -231 117 -27 125 -27 280 -31 161 -3 277
14 390 56 81 30 85 46 24 108 -33 34 -56 50 -67 47 -107 -33 -157 -40 -302
-40 -85 -1 -173 2 -195 5 -140 22 -291 83 -382 154 -121 96 -223 264 -263 433
-20 84 -18 85 118 79 64 -3 133 -8 152 -12 78 -15 185 -55 253 -96 83 -49 250
-210 245 -237 -7 -40 -152 -73 -218 -50 -34 12 -62 51 -58 81 4 32 20 27 30
-10 7 -28 13 -33 38 -33 55 0 75 71 30 111 -31 27 -91 12 -108 -27 -14 -30
-15 -83 -3 -104 16 -24 5 -27 -65 -19 -74 9 -142 43 -162 81 -18 34 -22 84 -8
104 18 24 36 9 36 -30 0 -67 85 -102 130 -54 59 64 24 171 -61 184 -72 11
-140 -52 -145 -132 -7 -115 65 -188 216 -219 46 -9 86 -15 135 -21 33 -3 69
-8 80 -10 49 -10 236 -14 294 -7 89 11 93 21 46 119 -145 305 -358 469 -700
539 -36 8 -329 17 -336 11z"/>
<path d="M785 2023 c-244 -35 -444 -155 -625 -373 -64 -77 -150 -207 -150
-226 0 -30 212 -145 357 -193 356 -120 697 -24 984 276 116 121 189 232 242
365 29 72 34 114 15 121 -7 2 -40 2 -73 -1 -59 -4 -85 -15 -85 -34 0 -22 -56
-124 -110 -200 -125 -174 -291 -310 -452 -369 -99 -37 -248 -49 -348 -30 -136
27 -290 90 -290 119 0 17 46 76 115 148 93 97 244 187 367 218 69 18 227 31
257 21 26 -8 27 -36 2 -91 -24 -54 -75 -110 -109 -122 -34 -12 -92 9 -92 33 0
18 11 20 27 4 6 -6 23 -9 39 -7 25 3 29 8 32 39 3 39 -8 54 -48 64 -31 8 -77
-24 -82 -58 -8 -44 44 -107 87 -107 24 0 18 -17 -22 -59 -89 -91 -202 -107
-249 -36 -24 37 -2 50 40 24 17 -10 40 -19 52 -19 19 0 63 32 65 48 0 4 2 16
4 26 9 47 -52 106 -109 106 -128 0 -151 -175 -32 -245 115 -67 199 -29 425
190 146 142 247 275 231 305 -15 28 -176 64 -321 73 -30 1 -95 -3 -144 -10z"/>
<path d="M3168 2025 c-2 -2 -34 -5 -73 -6 -145 -5 -355 -66 -504 -147 -129
-69 -286 -203 -279 -237 4 -22 125 -72 143 -59 6 5 43 32 81 61 106 80 316
177 428 197 144 26 237 27 351 2 53 -11 141 -52 207 -95 75 -49 200 -168 231
-220 17 -29 17 -30 -10 -49 -34 -24 -174 -78 -239 -92 -140 -32 -276 -30 -389
5 -81 26 -193 76 -199 90 -8 21 51 82 106 109 76 38 133 33 158 -14 18 -33 0
-43 -25 -15 -28 29 -47 32 -69 9 -24 -23 -19 -62 10 -89 55 -51 133 18 109 96
-4 12 -18 32 -32 45 l-25 23 31 16 c17 8 31 13 31 9 0 -4 7 -1 15 6 8 7 44 13
79 14 51 1 71 -3 93 -20 37 -27 66 -83 52 -100 -12 -15 -39 -8 -39 10 0 22
-45 56 -74 56 -16 0 -38 -11 -53 -26 -22 -22 -25 -32 -20 -72 4 -36 12 -52 36
-72 98 -82 227 35 175 159 -30 72 -94 116 -175 120 -140 7 -635 -178 -647
-242 -7 -33 177 -176 288 -224 30 -13 64 -28 75 -32 94 -41 318 -66 415 -46
13 2 41 7 60 10 58 9 158 40 241 74 104 43 263 136 267 155 7 32 -127 223
-225 321 -152 152 -334 243 -521 261 -31 3 -62 7 -69 9 -6 2 -13 2 -15 0z"/>
<path d="M1639 1598 c-18 -29 -35 -57 -37 -61 -2 -5 9 -34 26 -65 31 -60 64
-154 83 -237 98 -439 -41 -759 -409 -944 -75 -38 -84 -34 -100 41 -43 199 -28
388 41 537 22 48 93 159 127 199 31 38 60 26 92 -38 48 -97 43 -177 -13 -206
-28 -14 -49 -12 -49 6 0 4 11 11 24 14 36 9 44 55 15 79 -39 31 -109 -4 -109
-54 0 -30 42 -69 80 -73 38 -4 90 17 90 37 0 6 5 4 11 -6 19 -33 15 -157 -6
-201 -22 -46 -69 -77 -109 -74 -46 5 -43 26 7 47 61 26 77 76 37 119 -60 64
-180 18 -180 -69 0 -108 100 -161 212 -111 119 53 138 184 83 602 -9 70 -53
207 -69 213 -30 12 -201 -128 -282 -230 -194 -244 -242 -550 -145 -913 36
-136 45 -155 73 -158 14 -2 66 12 115 31 358 138 562 354 639 672 18 73 25
326 11 411 -28 176 -91 347 -169 457 -29 40 -50 34 -89 -25z"/>
<path d="M1976 1481 c-8 -12 30 -137 42 -145 4 -2 27 -7 51 -11 117 -17 295
-93 426 -180 180 -120 288 -267 331 -453 33 -140 8 -422 -37 -422 -16 0 -151
71 -209 110 -153 104 -254 238 -309 411 -28 88 -33 122 -18 131 37 24 165 -12
209 -60 29 -30 36 -55 24 -89 -12 -37 -33 -28 -32 13 1 27 -5 40 -21 51 -21
14 -24 13 -52 -15 -22 -22 -28 -35 -24 -53 14 -56 67 -76 117 -44 29 19 50 67
43 95 -4 18 -2 20 16 14 37 -11 105 -63 134 -101 37 -48 39 -121 6 -155 -33
-32 -50 -13 -32 37 11 31 11 40 -1 62 -32 57 -109 51 -145 -10 -63 -106 62
-214 165 -144 97 65 101 198 7 295 -72 76 -377 261 -495 302 -92 31 -96 27
-97 -88 -2 -384 175 -675 525 -860 112 -59 282 -124 304 -116 27 10 73 169
101 349 4 22 6 83 6 137 -2 283 -125 519 -366 703 -173 133 -405 230 -576 242
-60 4 -88 2 -93 -6z"/>
</g>
</svg>
